<svg id="Livello_1" data-name="Livello 1" xmlns="http://www.w3.org/2000/svg" viewBox="0 0 156.27 190.61"><defs><style>.cls-1{fill:#3c3d43;}.cls-2{fill:#fff;}</style></defs><title>generic-t1-pos</title><path class="cls-1" d="M139.36,1.35H17.07A15.55,15.55,0,0,0,1.56,16.85v119.5h137.8a15.56,15.56,0,0,0,15.51-15.51v-104A15.55,15.55,0,0,0,139.36,1.35Z"/><path class="cls-2" d="M39.24,28.35a10.68,10.68,0,0,1-3.16,7.85,10.39,10.39,0,0,1-7.67,3.18,10.44,10.44,0,0,1-7.64-3.18,10.62,10.62,0,0,1-3.19-7.85A10.86,10.86,0,0,1,28.41,17.46a10.42,10.42,0,0,1,7.67,3.17A10.56,10.56,0,0,1,39.24,28.35Zm-.58,91.24H18.09V45H38.66Z"/><path class="cls-2" d="M78.57,28.35a10.72,10.72,0,0,1-3.16,7.85,10.8,10.8,0,0,1-15.31,0,10.63,10.63,0,0,1-3.2-7.85,10.84,10.84,0,1,1,21.67,0ZM78,119.59H57.42V45H78Z"/><path class="cls-2" d="M138.52,57.86H118.93V96.11c0,3.89.64,6.75,1.93,8.56s3.78,2.73,7.48,2.73a30.06,30.06,0,0,0,5.09-.42A35.29,35.29,0,0,0,138,105.9v11.67a32.77,32.77,0,0,1-8.1,2,70.86,70.86,0,0,1-9.44.64q-10.18,0-16.12-6.57T98.36,94.75v-37H89.53V47.09l9.61-.52L106,21.74h12.9v24.7h19.59Z"/><path class="cls-1" d="M1.54,167.09V155.33H3.7v11.76Z"/><path class="cls-1" d="M9.49,167.27a6.36,6.36,0,0,1-3.63-1.07l.88-1.59a4.63,4.63,0,0,0,2.66.89c.91,0,1.94-.37,1.94-1.35,0-1.68-2.85-2-4.28-3.59a3.06,3.06,0,0,1-.77-2.11c0-1.75,1.38-3.23,3.84-3.23a6,6,0,0,1,2.89.66l0,1.93a5.65,5.65,0,0,0-2.75-.82c-1,0-1.7.41-1.7,1.19,0,2.18,5.09,2.06,5.09,5.72C13.63,166,11.81,167.27,9.49,167.27Z"/><path class="cls-1" d="M23.63,157.13H20.41v10H18.24v-10H14.83v-1.8h9.32Z"/><path class="cls-1" d="M25.73,167.09V155.33H27.9v11.76Z"/><path class="cls-1" d="M38.52,157.13H35.3v10H33.13v-10H29.72v-1.8H39Z"/><path class="cls-1" d="M49.23,166a5.1,5.1,0,0,1-3.78,1.3,5,5,0,0,1-3.66-1.16,4.52,4.52,0,0,1-1.16-3.34v-7.44h2.16v7.3a3,3,0,0,0,.69,2.07,2.65,2.65,0,0,0,2,.73,2.84,2.84,0,0,0,2.14-.73,2.74,2.74,0,0,0,.63-2v-7.41h2.16v7.33A4.58,4.58,0,0,1,49.23,166Z"/><path class="cls-1" d="M61.07,157.13H57.85v10H55.68v-10H52.27v-1.8h9.32Z"/><path class="cls-1" d="M72.1,165.57a6.51,6.51,0,0,1-8.48.25,5.89,5.89,0,0,1-1.86-4.5,6.17,6.17,0,0,1,1.7-4.39,6.42,6.42,0,0,1,8.84.11,6.09,6.09,0,0,1,1.48,4.18A6,6,0,0,1,72.1,165.57ZM67.76,157c-2.19,0-3.73,1.59-3.73,4.23s1.54,4.25,3.73,4.25,3.72-1.59,3.72-4.25S70,157,67.76,157Z"/><path class="cls-1" d="M80.58,167.09V155.33h2.16v11.76Z"/><path class="cls-1" d="M93.36,157.13H90.15v10H88v-10H84.56v-1.8h9.32Z"/><path class="cls-1" d="M101.56,167.09l-1.16-2.94H96.2l-1.09,2.94H93l4.57-11.82h1.57l4.73,11.82Zm-2.79-7.41a13.4,13.4,0,0,1-.44-1.46h0a9.08,9.08,0,0,1-.43,1.43l-1,2.73h2.86Z"/><path class="cls-1" d="M105.56,167.09V155.33h2.16v9.94h4.21v1.82Z"/><path class="cls-1" d="M113.63,167.09V155.33h2.16v11.76Z"/><path class="cls-1" d="M126.07,167.09l-1.16-2.94h-4.19l-1.09,2.94H117.5l4.57-11.82h1.57l4.74,11.82Zm-2.78-7.41a11.77,11.77,0,0,1-.45-1.46h0a10.09,10.09,0,0,1-.42,1.43l-1,2.73h2.85Z"/><path class="cls-1" d="M138.7,167.09l-5.32-6.89c-.5-.66-.84-1.11-1.17-1.61h0c0,.4,0,1,0,1.57v6.93h-2.16V155.33h2.2l5.12,6.62a13.82,13.82,0,0,1,1.16,1.64h0c0-.52,0-1.19,0-1.71v-6.55h2.14v11.76Z"/><path class="cls-1" d="M153.23,165.57a6.51,6.51,0,0,1-8.48.25,5.89,5.89,0,0,1-1.86-4.5,6.17,6.17,0,0,1,1.7-4.39,6.42,6.42,0,0,1,8.84.11,6.09,6.09,0,0,1,1.48,4.18A6,6,0,0,1,153.23,165.57ZM148.89,157c-2.2,0-3.73,1.59-3.73,4.23s1.53,4.25,3.73,4.25,3.71-1.59,3.71-4.25S151.14,157,148.89,157Z"/><path class="cls-1" d="M5,188.52H1.54V176.75H5.11c4.27,0,6.52,2.34,6.52,5.79S9.13,188.52,5,188.52Zm.09-10H3.7v8.13H5.08c3.09,0,4.25-1.95,4.25-4.13C9.33,180.22,7.92,178.57,5.06,178.57Z"/><path class="cls-1" d="M13.83,188.52V176.75H16v11.77Z"/><path class="cls-1" d="M30.18,178.56H27v10H24.79v-10H21.38v-1.81H30.7Z"/><path class="cls-1" d="M32.29,188.52V176.75h6.55l-.59,1.81h-3.8v3.05h3.8v1.8h-3.8v3.3h4.39v1.81Z"/><path class="cls-1" d="M46.5,188.7a5.62,5.62,0,0,1-5.93-5.95,6,6,0,0,1,6.37-6.11,6.47,6.47,0,0,1,3.06.65l0,2a5.55,5.55,0,0,0-3-.84,4.21,4.21,0,0,0-.16,8.41,6,6,0,0,0,2.89-.78l.59,1.55A7.27,7.27,0,0,1,46.5,188.7Z"/><path class="cls-1" d="M61,188.52l-5.32-6.89c-.5-.66-.84-1.11-1.16-1.61h0c0,.39.06,1,.06,1.57v6.93H52.34V176.75h2.19l5.13,6.63A16.68,16.68,0,0,1,60.82,185h0c0-.52,0-1.2,0-1.72v-6.55H63v11.77Z"/><path class="cls-1" d="M75.49,187a6,6,0,0,1-10.33-4.25,6.14,6.14,0,0,1,1.69-4.39,6.39,6.39,0,0,1,8.84.11,6.55,6.55,0,0,1-.2,8.53Zm-4.34-8.55c-2.19,0-3.73,1.59-3.73,4.23s1.54,4.25,3.73,4.25,3.72-1.59,3.72-4.25S73.4,178.45,71.15,178.45Z"/><path class="cls-1" d="M79.37,188.52V176.75h2.16v9.95h4.21v1.82Z"/><path class="cls-1" d="M97.22,187a6.51,6.51,0,0,1-8.48.25,5.89,5.89,0,0,1-1.86-4.5,6.15,6.15,0,0,1,1.7-4.39,6.39,6.39,0,0,1,8.84.11,6.55,6.55,0,0,1-.2,8.53Zm-4.34-8.55c-2.19,0-3.73,1.59-3.73,4.23s1.54,4.25,3.73,4.25,3.72-1.59,3.72-4.25S95.13,178.45,92.88,178.45Z"/><path class="cls-1" d="M106.49,188.7a5.67,5.67,0,0,1-5.95-5.93c0-3.5,2.63-6.13,6.56-6.13a10.09,10.09,0,0,1,3.46.61l0,2a7,7,0,0,0-3.21-.84c-3.09,0-4.41,1.89-4.41,4.16a4,4,0,0,0,4.12,4.32,4.57,4.57,0,0,0,1.86-.32v-4H111v5A9.57,9.57,0,0,1,106.49,188.7Z"/><path class="cls-1" d="M113.61,188.52V176.75h2.16v11.77Z"/><path class="cls-1" d="M126.06,188.52l-1.16-3h-4.2l-1.09,3h-2.12l4.57-11.82h1.57l4.73,11.82Zm-2.79-7.41a11.09,11.09,0,0,1-.44-1.47h0a8.78,8.78,0,0,1-.43,1.43l-1,2.73h2.86Z"/></svg>